# xmcd
#
# Track frame offsets: 
#        150
#        20552
#        45870
#        60281
#        77807
#
# Disc length: 1389 seconds
#
# Revision: 0
# Processed by: cddbd v1.5.2PL0 Copyright (c) Steve Scherf et al.
# Submitted via: ExactAudioCopyFreeDBPlugin 1.0
#
DISCID=2d056b05
DTITLE=Dan Whitener - Crossover
DYEAR=2017
DGENRE=Blues
TTITLE0=You Don't Return My Tenderness
TTITLE1=We Are Gonna Be Okay
TTITLE2=Orange Barrel Blues
TTITLE3=If I Can't Have You
TTITLE4=Ballad of Jim Bowie
EXTD=
EXTT0=
EXTT1=
EXTT2=
EXTT3=
EXTT4=
PLAYORDER=
